<?xml version="1.0" standalone="no"?>
<!DOCTYPE svg PUBLIC "-//W3C//DTD SVG 20010904//EN"
 "https://www.w3.org/TR/2001/REC-SVG-20010904/DTD/svg10.dtd">
<svg version="1.0" xmlns="https://www.w3.org/2000/svg"
 width="400.000000pt" height="400.000000pt" viewBox="0 0 400.000000 400.000000"
 preserveAspectRatio="xMidYMid meet">
<metadata>
Created by potrace 1.11, written by Peter Selinger 2001-2013
</metadata>
<g transform="translate(0.000000,400.000000) scale(0.100000,-0.100000)"
fill="#000000" stroke="none">
<path d="M0 2000 l0 -2000 2000 0 2000 0 0 2000 0 2000 -2000 0 -2000 0 0
-2000z m1530 1931 c246 -80 427 -270 490 -516 17 -63 21 -105 18 -199 l-2
-119 122 -69 122 -70 43 37 c53 46 182 110 267 132 101 26 275 24 370 -6 272
-84 459 -285 514 -553 77 -373 -160 -748 -534 -845 -88 -23 -263 -22 -350 1
-87 23 -196 77 -259 127 l-52 40 -121 -68 -120 -68 0 -143 -1 -143 114 -64
c63 -36 117 -65 121 -65 4 0 41 23 81 50 130 88 262 130 415 130 113 0 209
-23 322 -77 81 -39 107 -59 185 -137 72 -73 99 -108 133 -176 61 -122 77 -192
77 -335 -1 -208 -60 -350 -210 -501 -75 -76 -105 -99 -182 -137 -127 -63 -215
-81 -362 -74 -160 7 -257 40 -387 133 -185 131 -297 349 -297 579 0 55 3 110
6 121 7 19 -6 29 -119 93 l-126 70 -40 -33 c-53 -46 -157 -99 -248 -128 -63
-19 -95 -23 -205 -22 -148 0 -228 21 -352 89 -94 52 -227 188 -275 280 -66
127 -83 202 -83 355 1 121 4 143 29 215 69 198 200 346 383 431 200 94 449 87
640 -16 40 -22 91 -54 113 -71 l39 -32 113 63 c62 34 118 67 124 71 7 6 8 31
2 76 -4 37 -4 99 1 138 5 38 8 70 7 71 -8 6 -239 134 -243 134 -2 0 -32 -20
-66 -44 -133 -94 -228 -126 -392 -133 -102 -5 -134 -2 -205 16 -207 52 -372
182 -472 374 -47 89 -69 174 -75 288 -7 136 12 230 74 359 39 81 59 108 137
186 74 74 107 99 178 134 129 64 208 81 353 76 86 -3 138 -10 185 -25z"/>
<path d="M1247 3640 c-172 -29 -319 -190 -334 -365 -16 -201 111 -378 312
-431 181 -49 380 47 467 223 58 118 49 272 -23 385 -64 100 -169 169 -286 188
-65 11 -68 11 -136 0z m167 -154 c19 -8 52 -30 74 -50 134 -121 110 -341 -48
-430 -129 -73 -285 -17 -349 124 -27 59 -28 159 -2 215 45 99 126 154 229 155
34 0 78 -6 96 -14z"/>
<path d="M2499 2757 c-68 -36 -103 -93 -107 -176 -5 -80 15 -129 72 -179 51
-45 90 -52 293 -52 l181 0 26 -31 c34 -40 34 -88 2 -126 l-24 -28 -269 -5
-268 -5 0 -55 0 -55 273 -3 c170 -1 289 2 313 8 146 40 198 241 91 353 -58 61
-82 67 -292 67 l-192 0 -29 29 c-39 39 -41 100 -4 136 l24 25 266 0 265 0 0
60 0 60 -288 0 c-283 0 -290 0 -333 -23z"/>
<path d="M957 1974 c-4 -4 -7 -170 -7 -370 0 -410 -9 -374 90 -374 l59 0 111
128 c61 70 113 126 116 125 3 -1 48 -55 101 -120 52 -65 101 -121 107 -125 13
-9 118 -10 140 -2 14 5 16 48 16 376 l0 369 -67 -3 -68 -3 -5 -254 -5 -253
-103 111 c-57 61 -109 111 -115 111 -6 0 -60 -53 -121 -117 l-111 -116 -5 259
-5 259 -60 3 c-34 2 -64 0 -68 -4z"/>
<path d="M2687 1240 c-107 -27 -210 -111 -255 -208 l-27 -57 0 -250 0 -250 53
-3 c71 -4 82 7 82 79 l0 59 215 0 c118 0 218 1 223 3 4 1 9 -26 12 -60 3 -34
10 -67 16 -73 6 -6 36 -10 70 -8 l59 3 0 245 0 245 -33 67 c-41 84 -120 158
-199 188 -66 24 -162 33 -216 20z m169 -155 c43 -18 100 -79 119 -129 11 -28
15 -66 13 -116 l-3 -75 -217 -3 -218 -2 -6 26 c-10 41 2 146 21 184 58 116
175 162 291 115z"/>
</g>
</svg>
